<svg xmlns="http://www.w3.org/2000/svg" viewBox="0 0 640 360" role="img" aria-labelledby="title desc">
  <title id="title">Retail technology consultation</title>
  <desc id="desc">A stylized retail technology consultation dashboard with product cards and comparison data.</desc>
  <defs>
    <linearGradient id="bg" x1="0" y1="0" x2="1" y2="1">
      <stop offset="0" stop-color="#06111f"/>
      <stop offset="0.55" stop-color="#0b1c2d"/>
      <stop offset="1" stop-color="#10223a"/>
    </linearGradient>
    <linearGradient id="cyan" x1="0" y1="0" x2="1" y2="1">
      <stop offset="0" stop-color="#4de3ff"/>
      <stop offset="1" stop-color="#75f7b5"/>
    </linearGradient>
    <filter id="glow" x="-30%" y="-30%" width="160%" height="160%">
      <feGaussianBlur stdDeviation="8" result="blur"/>
      <feMerge>
        <feMergeNode in="blur"/>
        <feMergeNode in="SourceGraphic"/>
      </feMerge>
    </filter>
  </defs>
  <rect width="640" height="360" fill="url(#bg)"/>
  <path d="M0 264C92 226 133 286 232 247C330 208 358 154 449 176C535 197 576 149 640 104V360H0Z" fill="#4de3ff" opacity="0.08"/>
  <g opacity="0.18" stroke="#ffffff">
    <path d="M56 64H584"/>
    <path d="M56 116H584"/>
    <path d="M56 168H584"/>
    <path d="M56 220H584"/>
    <path d="M56 272H584"/>
  </g>
  <rect x="64" y="58" width="190" height="244" rx="14" fill="#ffffff" opacity="0.08" stroke="#ffffff" stroke-opacity="0.18"/>
  <rect x="386" y="58" width="190" height="244" rx="14" fill="#ffffff" opacity="0.08" stroke="#ffffff" stroke-opacity="0.18"/>
  <rect x="278" y="88" width="84" height="184" rx="16" fill="#091522" stroke="#4de3ff" stroke-opacity="0.42"/>
  <rect x="292" y="104" width="56" height="92" rx="8" fill="url(#cyan)" opacity="0.72" filter="url(#glow)"/>
  <rect x="84" y="82" width="96" height="14" rx="7" fill="#75f7b5" opacity="0.82"/>
  <rect x="84" y="116" width="136" height="10" rx="5" fill="#ffffff" opacity="0.42"/>
  <rect x="84" y="142" width="112" height="10" rx="5" fill="#ffffff" opacity="0.24"/>
  <rect x="84" y="204" width="138" height="54" rx="10" fill="#4de3ff" opacity="0.16"/>
  <rect x="410" y="82" width="114" height="14" rx="7" fill="#4de3ff" opacity="0.82"/>
  <rect x="410" y="116" width="126" height="10" rx="5" fill="#ffffff" opacity="0.42"/>
  <rect x="410" y="142" width="96" height="10" rx="5" fill="#ffffff" opacity="0.24"/>
  <rect x="410" y="204" width="138" height="54" rx="10" fill="#75f7b5" opacity="0.16"/>
  <path d="M254 174H278M362 174H386" stroke="url(#cyan)" stroke-width="4" stroke-linecap="round"/>
  <circle cx="320" cy="246" r="8" fill="#75f7b5"/>
</svg>
